<svg xmlns="http://www.w3.org/2000/svg" xmlns:xlink="http://www.w3.org/1999/xlink" width="500" zoomAndPan="magnify" viewBox="0 0 375 374.999991" height="500" preserveAspectRatio="xMidYMid meet" version="1.0"><defs><g/><clipPath id="a42a3735c5"><path d="M 62.902344 193 L 82 193 L 82 216 L 62.902344 216 Z M 62.902344 193 " clip-rule="nonzero"/></clipPath><clipPath id="f43201d680"><path d="M 62.902344 151.5 L 125.152344 151.5 L 125.152344 217.5 L 62.902344 217.5 Z M 62.902344 151.5 " clip-rule="nonzero"/></clipPath><clipPath id="a299668644"><path d="M 106 153 L 125.152344 153 L 125.152344 176 L 106 176 Z M 106 153 " clip-rule="nonzero"/></clipPath><clipPath id="30a5046dd5"><path d="M 106.121094 153.214844 L 125.433594 153.214844 L 125.433594 175.320312 L 106.121094 175.320312 Z M 106.121094 153.214844 " clip-rule="nonzero"/></clipPath><clipPath id="1370f4fcc2"><path d="M 106.121094 164.28125 L 125.433594 153.246094 L 125.433594 175.320312 Z M 106.121094 164.28125 " clip-rule="nonzero"/></clipPath><clipPath id="91e84d3663"><path d="M 83 172 L 105 172 L 105 196 L 83 196 Z M 83 172 " clip-rule="nonzero"/></clipPath><clipPath id="48870e38ef"><path d="M 91.3125 172.617188 L 105.203125 180.042969 L 96.722656 195.917969 L 82.828125 188.496094 Z M 91.3125 172.617188 " clip-rule="nonzero"/></clipPath><clipPath id="78e102c58d"><path d="M 91.3125 172.617188 L 105.203125 180.042969 L 96.722656 195.917969 L 82.828125 188.496094 Z M 91.3125 172.617188 " clip-rule="nonzero"/></clipPath></defs><g fill="#ff3131" fill-opacity="1"><g transform="translate(126.185797, 209.999986)"><g><path d="M 4.59375 0 L 4.59375 -51.796875 L 11.46875 -51.796875 L 21.75 -20.203125 L 32.046875 -51.796875 L 38.921875 -51.796875 L 38.921875 0 L 32.046875 0 L 32.046875 -30.78125 L 25.15625 -9.6875 L 18.359375 -9.6875 L 11.46875 -30.78125 L 11.46875 0 Z M 4.59375 0 "/></g></g></g><g fill="#ff3131" fill-opacity="1"><g transform="translate(166.43716, 209.999986)"><g><path d="M 8.359375 0 C 6.878906 0 5.609375 -0.515625 4.546875 -1.546875 C 3.484375 -2.585938 2.953125 -3.875 2.953125 -5.40625 L 2.953125 -16.578125 C 2.953125 -18.054688 3.484375 -19.328125 4.546875 -20.390625 C 5.609375 -21.453125 6.878906 -21.984375 8.359375 -21.984375 L 14.140625 -21.984375 C 14.921875 -21.984375 15.570312 -22.238281 16.09375 -22.75 C 16.613281 -23.269531 16.875 -23.898438 16.875 -24.640625 L 16.875 -27.375 C 16.875 -28.113281 16.613281 -28.742188 16.09375 -29.265625 C 15.570312 -29.785156 14.921875 -30.046875 14.140625 -30.046875 L 6.140625 -30.046875 L 7.703125 -37 L 18.421875 -37 C 19.898438 -37 21.171875 -36.46875 22.234375 -35.40625 C 23.296875 -34.34375 23.828125 -33.070312 23.828125 -31.59375 L 23.828125 0 Z M 12.578125 -6.953125 L 16.875 -6.953125 L 16.875 -15.015625 L 12.578125 -15.015625 C 11.835938 -15.015625 11.207031 -14.753906 10.6875 -14.234375 C 10.175781 -13.722656 9.921875 -13.097656 9.921875 -12.359375 L 9.921875 -9.625 C 9.921875 -8.882812 10.175781 -8.253906 10.6875 -7.734375 C 11.207031 -7.210938 11.835938 -6.953125 12.578125 -6.953125 Z M 12.578125 -6.953125 "/></g></g></g><g fill="#ff3131" fill-opacity="1"><g transform="translate(189.966303, 209.999986)"><g><path d="M 4 0 L 4 -37 L 19.46875 -37 C 20.894531 -37 22.148438 -36.476562 23.234375 -35.4375 C 24.316406 -34.40625 24.859375 -33.148438 24.859375 -31.671875 L 24.859375 0 L 17.90625 0 L 17.90625 -27.375 C 17.90625 -28.164062 17.632812 -28.804688 17.09375 -29.296875 C 16.550781 -29.796875 15.9375 -30.046875 15.25 -30.046875 L 10.953125 -30.046875 L 10.953125 0 Z M 4 0 "/></g></g></g><g fill="#ff3131" fill-opacity="1"><g transform="translate(215.567226, 209.999986)"><g><path d="M 8.359375 0 C 6.878906 0 5.609375 -0.53125 4.546875 -1.59375 C 3.484375 -2.65625 2.953125 -3.925781 2.953125 -5.40625 L 2.953125 -31.671875 C 2.953125 -33.148438 3.484375 -34.40625 4.546875 -35.4375 C 5.609375 -36.476562 6.878906 -37 8.359375 -37 L 18.421875 -37 C 19.953125 -37 21.234375 -36.476562 22.265625 -35.4375 C 23.304688 -34.40625 23.828125 -33.148438 23.828125 -31.671875 L 23.828125 -20.421875 C 23.828125 -18.941406 23.304688 -17.671875 22.265625 -16.609375 C 21.234375 -15.546875 19.953125 -15.015625 18.421875 -15.015625 L 9.921875 -15.015625 L 9.921875 -9.625 C 9.921875 -8.882812 10.175781 -8.253906 10.6875 -7.734375 C 11.207031 -7.210938 11.863281 -6.953125 12.65625 -6.953125 L 22.28125 -6.953125 L 23.828125 0 Z M 9.921875 -21.984375 L 14.203125 -21.984375 C 14.941406 -21.984375 15.570312 -22.238281 16.09375 -22.75 C 16.613281 -23.269531 16.875 -23.898438 16.875 -24.640625 L 16.875 -27.375 C 16.875 -28.113281 16.613281 -28.742188 16.09375 -29.265625 C 15.570312 -29.785156 14.941406 -30.046875 14.203125 -30.046875 L 12.65625 -30.046875 C 11.863281 -30.046875 11.207031 -29.785156 10.6875 -29.265625 C 10.175781 -28.742188 9.921875 -28.113281 9.921875 -27.375 Z M 9.921875 -21.984375 "/></g></g></g><g fill="#ff3131" fill-opacity="1"><g transform="translate(239.096369, 209.999986)"><g><path d="M 8.359375 18.5 C 6.929688 18.5 5.671875 17.976562 4.578125 16.9375 C 3.492188 15.90625 2.953125 14.625 2.953125 13.09375 L 2.953125 5.03125 L 9.921875 6.65625 L 9.921875 8.875 C 9.921875 9.570312 10.191406 10.191406 10.734375 10.734375 C 11.273438 11.273438 11.890625 11.546875 12.578125 11.546875 L 14.203125 11.546875 C 14.992188 11.546875 15.632812 11.273438 16.125 10.734375 C 16.625 10.191406 16.875 9.570312 16.875 8.875 L 16.875 0 L 8.359375 0 C 6.929688 0 5.671875 -0.515625 4.578125 -1.546875 C 3.492188 -2.585938 2.953125 -3.875 2.953125 -5.40625 L 2.953125 -31.59375 C 2.953125 -33.125 3.492188 -34.40625 4.578125 -35.4375 C 5.671875 -36.476562 6.929688 -37 8.359375 -37 L 23.828125 -37 L 23.828125 13.09375 C 23.828125 14.625 23.304688 15.90625 22.265625 16.9375 C 21.234375 17.976562 19.953125 18.5 18.421875 18.5 Z M 12.578125 -6.953125 L 14.203125 -6.953125 C 14.992188 -6.953125 15.632812 -7.222656 16.125 -7.765625 C 16.625 -8.304688 16.875 -8.925781 16.875 -9.625 L 16.875 -30.046875 L 12.578125 -30.046875 C 11.890625 -30.046875 11.273438 -29.796875 10.734375 -29.296875 C 10.191406 -28.804688 9.921875 -28.164062 9.921875 -27.375 L 9.921875 -9.625 C 9.921875 -8.925781 10.191406 -8.304688 10.734375 -7.765625 C 11.273438 -7.222656 11.890625 -6.953125 12.578125 -6.953125 Z M 12.578125 -6.953125 "/></g></g></g><g fill="#ff3131" fill-opacity="1"><g transform="translate(262.625511, 209.999986)"><g><path d="M 8.359375 0 C 6.878906 0 5.609375 -0.53125 4.546875 -1.59375 C 3.484375 -2.65625 2.953125 -3.925781 2.953125 -5.40625 L 2.953125 -31.671875 C 2.953125 -33.148438 3.484375 -34.40625 4.546875 -35.4375 C 5.609375 -36.476562 6.878906 -37 8.359375 -37 L 18.421875 -37 C 19.953125 -37 21.234375 -36.476562 22.265625 -35.4375 C 23.304688 -34.40625 23.828125 -33.148438 23.828125 -31.671875 L 23.828125 -20.421875 C 23.828125 -18.941406 23.304688 -17.671875 22.265625 -16.609375 C 21.234375 -15.546875 19.953125 -15.015625 18.421875 -15.015625 L 9.921875 -15.015625 L 9.921875 -9.625 C 9.921875 -8.882812 10.175781 -8.253906 10.6875 -7.734375 C 11.207031 -7.210938 11.863281 -6.953125 12.65625 -6.953125 L 22.28125 -6.953125 L 23.828125 0 Z M 9.921875 -21.984375 L 14.203125 -21.984375 C 14.941406 -21.984375 15.570312 -22.238281 16.09375 -22.75 C 16.613281 -23.269531 16.875 -23.898438 16.875 -24.640625 L 16.875 -27.375 C 16.875 -28.113281 16.613281 -28.742188 16.09375 -29.265625 C 15.570312 -29.785156 14.941406 -30.046875 14.203125 -30.046875 L 12.65625 -30.046875 C 11.863281 -30.046875 11.207031 -29.785156 10.6875 -29.265625 C 10.175781 -28.742188 9.921875 -28.113281 9.921875 -27.375 Z M 9.921875 -21.984375 "/></g></g></g><g fill="#ff3131" fill-opacity="1"><g transform="translate(286.154654, 209.999986)"><g><path d="M 2.953125 0 L 2.953125 -37 L 18.421875 -37 C 19.898438 -37 21.171875 -36.46875 22.234375 -35.40625 C 23.296875 -34.34375 23.828125 -33.070312 23.828125 -31.59375 L 23.828125 -23.53125 L 16.875 -25.09375 L 16.875 -27.3125 C 16.875 -28.050781 16.613281 -28.691406 16.09375 -29.234375 C 15.570312 -29.773438 14.941406 -30.046875 14.203125 -30.046875 L 9.921875 -30.046875 L 9.921875 0 Z M 2.953125 0 "/></g></g></g><g clip-path="url(#a42a3735c5)"><path fill="#00004d" d="M 81.742188 204.613281 L 62.929688 215.441406 L 62.929688 193.746094 Z M 81.742188 204.613281 " fill-opacity="1" fill-rule="nonzero"/></g><g clip-path="url(#f43201d680)"><path fill="#00004d" d="M 125.40625 183.519531 L 125.40625 213.332031 L 118.40625 217.488281 L 62.929688 185.46875 L 62.929688 155.660156 L 69.929688 151.5 L 125.40625 183.519531 " fill-opacity="1" fill-rule="nonzero"/></g><g clip-path="url(#a299668644)"><path fill="#00004d" d="M 125.40625 153.539062 L 125.40625 175.242188 L 106.597656 164.375 Z M 125.40625 153.539062 " fill-opacity="1" fill-rule="nonzero"/></g><g clip-path="url(#30a5046dd5)"><g clip-path="url(#1370f4fcc2)"><path fill="#ff3131" d="M 106.121094 175.320312 L 106.121094 153.214844 L 125.433594 153.214844 L 125.433594 175.320312 Z M 106.121094 175.320312 " fill-opacity="1" fill-rule="nonzero"/></g></g><g clip-path="url(#91e84d3663)"><g clip-path="url(#48870e38ef)"><g clip-path="url(#78e102c58d)"><path fill="#ff3131" d="M 94.6875 185.648438 L 102.738281 183.851562 L 104.867188 179.867188 L 91.3125 172.621094 L 86.238281 182.117188 L 91.082031 181.160156 L 92.921875 177.71875 L 99.113281 181.027344 L 85.335938 183.804688 L 83.003906 188.167969 L 90.9375 186.402344 L 92.730469 193.367188 L 97.019531 195.660156 Z M 94.6875 185.648438 " fill-opacity="1" fill-rule="nonzero"/></g></g></g></svg>